<?xml version="1.0" encoding="UTF-8" standalone="no"?><!DOCTYPE svg PUBLIC "-//W3C//DTD SVG 1.1//EN" "http://www.w3.org/Graphics/SVG/1.1/DTD/svg11.dtd"><svg width="100%" height="100%" viewBox="0 0 1005 192" version="1.1" xmlns="http://www.w3.org/2000/svg" xmlns:xlink="http://www.w3.org/1999/xlink" xml:space="preserve" xmlns:serif="http://www.serif.com/" style="fill-rule:evenodd;clip-rule:evenodd;stroke-linejoin:round;stroke-miterlimit:2;"><g><g><g><path d="M328.034,127.642c0,-27.637 -21.7,-50.114 -48.38,-50.114l-120.466,0l0,0.105l-102.553,0c-7.216,0 -13.086,-6.08 -13.086,-13.555c0,-7.475 5.869,-13.555 13.086,-13.555l178.476,0l0,-0.053l91.829,-0.84l0,-35.719l-112.97,0l0,0.053l-157.336,0c-26.68,0 -48.38,22.478 -48.38,50.114c0,27.637 21.7,50.114 48.38,50.114l107.762,0l0,-0.105l115.283,0c7.216,0 13.086,6.08 13.086,13.555c0,7.475 -5.87,13.555 -13.086,13.555l-182.187,0l0,-0.132l-89.238,-0.421l0,37.112l80.243,-0.131l0,0.131l191.207,0c26.68,0 48.38,-22.477 48.38,-50.114l-0.051,0Z" style="fill:#808080;fill-rule:nonzero;"/><path d="M364.739,76.049l7.373,-8.96c6.775,6.019 13.368,9.262 22.055,9.262c7.587,0 12.375,-3.655 12.375,-8.96l0,-0.192c0,-5.002 -2.798,-7.943 -15.766,-10.911c-14.874,-3.573 -23.24,-8.245 -23.24,-21.3l0,-0.192c0,-12.23 9.978,-20.695 23.833,-20.695c10.277,0 18.157,3.16 25.338,8.959l-6.588,9.482c-6.375,-4.782 -12.562,-7.338 -18.963,-7.338c-7.181,0 -11.377,3.683 -11.377,8.465l0,0.193c0,5.496 3.198,7.942 16.646,11.213c14.66,3.875 22.354,8.959 22.354,20.887l0,0.192c0,13.439 -10.272,21.3 -24.932,21.3c-10.763,0 -20.741,-3.683 -29.134,-11.405l0.027,0l-0,0Z" style="fill:#808080;fill-rule:nonzero;"/><path d="M454.613,50.985l0,-0.193c0,-19.98 15.168,-36.882 36.608,-36.882c21.436,0 36.389,16.6 36.389,36.69l0,0.192c0,19.98 -15.168,36.882 -36.608,36.882c-21.436,0 -36.389,-16.6 -36.389,-36.69Zm60.142,-0l0,-0.193c0,-13.851 -9.765,-25.284 -23.752,-25.284c-13.982,0 -23.534,11.213 -23.534,25.064l0,0.193c0,13.851 9.765,25.284 23.752,25.284c13.988,0 23.534,-11.213 23.534,-25.064Z" style="fill:#808080;fill-rule:nonzero;"/><path d="M566.91,15.119l31.125,0c8.766,0 15.653,2.638 20.143,7.146c3.684,3.985 5.782,9.179 5.782,15.39l0,0.193c0,11.708 -6.882,18.743 -16.566,21.602l18.857,27.016l-14.554,0l-17.159,-24.872l-15.36,0l0,24.872l-12.269,0l0,-71.346l-0,0Zm30.234,35.371c8.772,0 14.367,-4.59 14.367,-11.928l0,-0.193c0,-7.75 -5.275,-11.818 -14.474,-11.818l-17.859,0l0,23.938l17.965,0Z" style="fill:#808080;fill-rule:nonzero;"/><rect x="664.151" y="15.119" width="12.263" height="71.346" style="fill:#808080;"/><path d="M744.255,14.597l11.377,0l30.72,71.841l-12.963,0l-7.074,-17.232l-33.005,0l-7.186,17.232l-12.557,0l30.714,-71.841l-0.027,0Zm17.565,43.533l-12.076,-28.527l-11.97,28.527l24.046,0Z" style="fill:#808080;fill-rule:nonzero;"/><path d="M822.741,15.119l11.377,0l37.42,49.332l0,-49.332l12.076,0l0,71.346l-10.277,0l-38.493,-50.761l0,50.761l-12.076,0l0,-71.346l-0.027,0Z" style="fill:#808080;fill-rule:nonzero;"/><path d="M922.887,50.985l0,-0.193c0,-19.98 15.168,-36.882 36.608,-36.882c21.436,0 36.416,16.6 36.416,36.69l0,0.192c0,19.98 -15.168,36.882 -36.608,36.882c-21.436,0 -36.389,-16.6 -36.389,-36.69l-0.027,0Zm60.142,-0l0,-0.193c0,-13.851 -9.765,-25.284 -23.752,-25.284c-13.988,0 -23.534,11.213 -23.534,25.064l0,0.193c0,13.851 9.765,25.284 23.752,25.284c13.988,0 23.534,-11.213 23.534,-25.064Z" style="fill:#808080;fill-rule:nonzero;"/></g><g><path d="M369.071,118.897l3.999,0l22.998,34.214l22.998,-34.214l4.005,0l0,57.828l-4.244,0l0,-50.237l-22.678,33.293l-0.32,0l-22.678,-33.293l0,50.237l-4.079,0l0,-57.828Z" style="fill:#a7a5a5;fill-rule:nonzero;"/><path d="M455.767,155.742l0,-0.163c0,-12.146 8.515,-21.987 19.798,-21.987c11.283,0 19.153,9.571 19.153,22.069c0,0.732 0,1.003 -0.08,1.654l-34.627,0c0.645,10.492 8.27,16.592 16.359,16.592c6.553,0 10.798,-2.901 14.317,-6.616l2.794,2.467c-4.244,4.636 -9.321,7.944 -17.271,7.944c-10.963,0 -20.47,-8.757 -20.47,-21.96l0.027,0Zm34.627,-2.06c-0.645,-8.513 -5.402,-16.348 -14.989,-16.348c-8.276,0 -14.722,7.022 -15.394,16.348l30.383,0Z" style="fill:#a7a5a5;fill-rule:nonzero;"/><path d="M523.113,155.849l0,-0.19c0,-13.637 10.238,-22.069 20.31,-22.069c8.356,0 13.677,4.799 17.196,10.086l0,-27.247l3.999,0l0,60.295l-3.999,0l0,-9.408c-3.685,5.531 -8.841,10.411 -17.196,10.411c-10.072,0 -20.31,-8.187 -20.31,-21.879l0,0Zm37.747,-0.108l0,-0.163c0,-10.818 -8.276,-18.084 -17.031,-18.084c-8.761,0 -16.365,6.778 -16.365,18.002l0,0.163c0,11.061 7.524,18.164 16.365,18.164c8.835,0 17.031,-7.347 17.031,-18.083Z" style="fill:#a7a5a5;fill-rule:nonzero;"/><path d="M599.331,118.056l4.996,0l0,5.531l-4.996,0l0,-5.531Zm0.48,16.538l4.005,0l0,42.131l-4.005,0l0,-42.131Z" style="fill:#a7a5a5;fill-rule:nonzero;"/><path d="M635.595,164.499l0,-0.163c0,-8.838 7.444,-13.718 18.273,-13.718c5.881,0 9.833,0.732 13.832,1.817l0,-1.817c0,-8.594 -5.156,-12.878 -13.752,-12.878c-5.162,0 -9.246,1.41 -13.085,3.389l-1.477,-3.552c4.591,-2.223 9.001,-3.633 14.829,-3.633c5.828,0 10.152,1.572 13.192,4.636c2.874,2.901 4.271,6.859 4.271,11.902l0,26.271l-3.925,0l0,-7.022c-2.874,3.958 -8.03,8.025 -15.954,8.025c-7.929,0 -16.119,-4.365 -16.119,-13.23l-0.085,-0.027l0,0Zm32.159,-3.552l0,-4.799c-3.519,-0.894 -8.19,-1.898 -14.157,-1.898c-8.835,0 -13.752,3.877 -13.752,9.841l0,0.163c0,6.1 5.721,9.651 12.115,9.651c8.515,0 15.794,-5.287 15.794,-12.959Z" style="fill:#a7a5a5;fill-rule:nonzero;"/><path d="M702.706,155.849l0,-0.19c0,-13.637 10.238,-22.069 20.31,-22.069c8.356,0 13.672,4.799 17.191,10.086l0,-27.247l4.005,0l0,60.295l-4.005,0l0,-9.408c-3.679,5.531 -8.835,10.411 -17.191,10.411c-10.072,0 -20.31,-8.187 -20.31,-21.879l0,0Zm37.747,-0.108l0,-0.163c0,-10.818 -8.276,-18.084 -17.036,-18.084c-8.755,0 -16.386,6.778 -16.386,18.002l0,0.163c0,11.061 7.524,18.164 16.386,18.164c8.867,0 17.036,-7.347 17.036,-18.083Z" style="fill:#a7a5a5;fill-rule:nonzero;"/><path d="M775.965,155.824l0,-0.163c0,-11.821 9.081,-22.069 21.521,-22.069c12.44,0 21.355,10.086 21.355,21.879l0,0.163c0,11.82 -9.081,22.068 -21.515,22.068c-12.44,0 -21.361,-10.085 -21.361,-21.879l0,0Zm38.552,0l0,-0.163c0,-10.248 -7.524,-18.246 -17.191,-18.246c-9.673,0 -17.036,8.188 -17.036,18.084l0,0.163c0,10.248 7.524,18.246 17.196,18.246c9.673,0 17.031,-8.188 17.031,-18.084Z" style="fill:#a7a5a5;fill-rule:nonzero;"/><path d="M850.626,134.595l4.005,0l0,11.983c3.359,-7.591 10.152,-12.877 18.508,-12.634l0,4.473l-0.4,0c-9.566,0 -18.082,7.429 -18.082,21.066l0,17.27l-4.005,0l0,-42.131l-0.027,-0.027l0,-0Z" style="fill:#a7a5a5;fill-rule:nonzero;"/><path d="M897.854,155.742l0,-0.163c0,-12.146 8.515,-21.987 19.798,-21.987c11.288,0 19.159,9.571 19.159,22.069c0,0.732 0,1.003 -0.08,1.654l-34.633,0c0.645,10.492 8.276,16.592 16.365,16.592c6.553,0 10.798,-2.901 14.317,-6.616l2.794,2.467c-4.244,4.636 -9.321,7.944 -17.276,7.944c-10.958,0 -20.47,-8.757 -20.47,-21.96l0.027,0Zm34.633,-2.06c-0.645,-8.513 -5.402,-16.348 -14.994,-16.348c-8.276,0 -14.722,7.022 -15.394,16.348l30.388,0l-0,0Z" style="fill:#a7a5a5;fill-rule:nonzero;"/><path d="M964.319,171.439l2.362,-3.226c4.596,3.552 9.673,5.531 14.994,5.531c5.641,0 10.072,-3.063 10.072,-8.025l0,-0.163c0,-4.961 -5.236,-6.696 -11.043,-8.432c-6.879,-1.979 -14.317,-3.958 -14.317,-11.576l0,-0.163c0,-6.778 5.641,-11.658 13.752,-11.658c5.002,0 10.643,1.735 14.834,4.636l-2.122,3.389c-3.845,-2.549 -8.356,-4.202 -12.845,-4.202c-5.801,0 -9.481,3.145 -9.481,7.347l0,0.163c0,4.717 5.641,6.371 11.629,8.188c6.719,1.979 13.757,4.392 13.757,11.82l0,0.163c0,7.51 -6.313,12.308 -14.402,12.308c-6.121,0 -12.6,-2.467 -17.111,-6.1l-0.08,0l0,-0Z" style="fill:#a7a5a5;fill-rule:nonzero;"/></g></g></g></svg>